<?xml version="1.0" encoding="UTF-8"?>
<svg version="1.1" xmlns="http://www.w3.org/2000/svg" width="256" height="256">
<path d="M0 0 C0.81928482 -0.01606293 1.63856964 -0.03212585 2.48268127 -0.04867554 C6.27685221 -0.09393731 10.07085428 -0.1343185 13.86523438 -0.15722656 C15.84224364 -0.17360662 17.8191983 -0.20065103 19.79589844 -0.23925781 C33.63949548 -0.50756718 45.62026814 0.9798487 58.80834961 5.19287109 C59.9981543 5.54631592 61.18795898 5.89976074 62.41381836 6.26391602 C69.39955348 8.35504067 75.54905677 11.48475922 81.80834961 15.19287109 C82.73776367 15.70720703 83.66717773 16.22154297 84.62475586 16.75146484 C85.70563477 17.46496094 85.70563477 17.46496094 86.80834961 18.19287109 C86.80834961 18.85287109 86.80834961 19.51287109 86.80834961 20.19287109 C87.53538086 20.44939453 88.26241211 20.70591797 89.01147461 20.97021484 C111.72488039 30.89939922 132.46892824 60.69867646 141.57250977 83.07080078 C143.21771836 87.37740884 144.64224306 91.73211253 145.80834961 96.19287109 C146.06801514 97.13912354 146.32768066 98.08537598 146.59521484 99.06030273 C148.97481405 108.68817948 149.30235571 117.954987 149.25439453 127.83227539 C149.24589338 130.49167686 149.27474237 133.14891487 149.30639648 135.80810547 C149.36700597 150.37692082 147.08116126 163.82047168 141.55834961 177.38037109 C141.26532959 178.11666748 140.97230957 178.85296387 140.67041016 179.61157227 C136.8915844 188.81370357 132.17259243 197.51400668 125.80834961 205.19287109 C125.13416992 206.04365234 124.45999023 206.89443359 123.76538086 207.77099609 C115.98118449 217.46933912 107.65549897 225.61315744 97.80834961 233.19287109 C97.21022461 233.69302734 96.61209961 234.19318359 95.99584961 234.70849609 C79.43721289 248.16238843 56.31775443 256.23217807 35.10522461 256.43115234 C34.26856262 256.43922409 33.43190063 256.44729584 32.56988525 256.45561218 C30.7981571 256.46940335 29.02640293 256.48014757 27.25463867 256.48803711 C25.47851531 256.4994555 23.70242342 256.5197424 21.92651367 256.54956055 C-14.7032279 257.16279696 -43.16206451 242.22547316 -69.19165039 217.19287109 C-70.1262207 216.29955078 -71.06079102 215.40623047 -72.02368164 214.48583984 C-84.72362929 202.09053861 -84.72362929 202.09053861 -87.19165039 194.19287109 C-87.85165039 194.19287109 -88.51165039 194.19287109 -89.19165039 194.19287109 C-96.97150302 180.62901163 -102.73069242 167.47215511 -106.19165039 152.19287109 C-106.37284424 151.4700293 -106.55403809 150.7471875 -106.74072266 150.00244141 C-107.38824108 145.96798445 -107.39494023 141.97656216 -107.42993164 137.89599609 C-107.43800339 136.98895935 -107.44607513 136.08192261 -107.45439148 135.1473999 C-107.46820351 133.22426239 -107.47893851 131.30110066 -107.48681641 129.37792969 C-107.49824595 127.44263342 -107.51855134 125.50736637 -107.54833984 123.57226562 C-107.94277654 97.90082673 -101.4639341 75.60129666 -87.19165039 54.19287109 C-86.53165039 54.19287109 -85.87165039 54.19287109 -85.19165039 54.19287109 C-84.94415039 53.24412109 -84.69665039 52.29537109 -84.44165039 51.31787109 C-83.0184357 47.75983436 -82.50058703 47.64053087 -79.19165039 46.19287109 C-78.50678314 44.86879441 -77.84294836 43.53377869 -77.19165039 42.19287109 C-75.5473521 40.50413231 -73.87780822 38.83981595 -72.19165039 37.19287109 C-71.32618686 36.16057122 -70.47194344 35.1187612 -69.62915039 34.06787109 C-67.57738596 31.64784125 -65.86910096 29.85473696 -63.19165039 28.19287109 C-62.53165039 28.19287109 -61.87165039 28.19287109 -61.19165039 28.19287109 C-60.98540039 27.57412109 -60.77915039 26.95537109 -60.56665039 26.31787109 C-58.64389151 23.34633465 -56.52570512 23.0626245 -53.19165039 22.19287109 C-53.19165039 21.53287109 -53.19165039 20.87287109 -53.19165039 20.19287109 C-49.12482176 17.83129769 -45.04511202 15.49538962 -40.94702148 13.18847656 C-39.54692618 12.39437522 -38.158239 11.58016999 -36.77368164 10.75927734 C-27.98412701 5.87619144 -17.85509401 3.73554745 -8.19165039 1.19287109 C-7.57225082 1.01978424 -6.95285126 0.84669739 -6.31468201 0.66836548 C-4.15085557 0.1837343 -2.21472499 0.03980947 0 0 Z " fill="#FEB963" transform="translate(107.191650390625,-0.19287109375)"/>
<path d="M0 0 C12.79793898 -2.19381829 25.60271919 -3.62446653 38.5625 -4.4375 C40.00394127 -4.528445 40.00394127 -4.528445 41.47450256 -4.62122726 C66.20381975 -5.99576535 85.77825623 -3.19291262 104.89144707 13.45751381 C122.56749318 29.46221596 138.42925618 47.67708222 153.20131779 66.36975956 C155.68481066 69.66309136 155.68481066 69.66309136 159 72 C157.18966239 47.27280328 154.22659624 24.68190717 139.8984375 3.64453125 C139.60195312 3.10183594 139.30546875 2.55914062 139 2 C139.33 1.34 139.66 0.68 140 0 C149.71664606 12.43007116 156.99145724 25.66594544 161 41 C161.25966553 41.94625244 161.51933105 42.89250488 161.78686523 43.86743164 C164.16646444 53.49530839 164.4940061 62.76211591 164.44604492 72.6394043 C164.43754378 75.29880576 164.46639277 77.95604377 164.49804688 80.61523438 C164.55865636 95.18404973 162.27281165 108.62760058 156.75 122.1875 C156.45697998 122.92379639 156.16395996 123.66009277 155.86206055 124.41870117 C152.08323479 133.62083248 147.36424283 142.32113559 141 150 C140.32582031 150.85078125 139.65164062 151.7015625 138.95703125 152.578125 C131.17283488 162.27646802 122.84714936 170.42028634 113 178 C112.401875 178.50015625 111.80375 179.0003125 111.1875 179.515625 C94.62886328 192.96951733 71.50940482 201.03930697 50.296875 201.23828125 C49.46021301 201.246353 48.62355103 201.25442474 47.76153564 201.26274109 C45.98980749 201.27653226 44.21805332 201.28727648 42.44628906 201.29516602 C40.6701657 201.30658441 38.89407382 201.3268713 37.11816406 201.35668945 C9.94617556 201.811589 -15.6725278 194.32857116 -37 177 C-36.34 176.67 -35.68 176.34 -35 176 C-32.63001168 177.27214857 -30.35687957 178.60222717 -28.0625 180 C-3.05367318 194.54551427 21.79769173 195.52772768 50 195 C45.74129989 189.64289968 41.23747739 185.4760736 35.72019768 181.44381523 C19.4650666 169.43854803 1.04644541 154.55461049 -2.69833505 133.63187754 C-5.49432806 114.91567833 -4.21690504 95.57601021 -3.09715092 76.7678231 C-2.60668508 68.37715303 -2.37774862 59.98453073 -2.16391504 51.58298743 C-1.72034151 34.37207883 -0.96986178 17.18915545 0 0 Z " fill="#E6A85A" transform="translate(92,55)"/>
<path d="M0 0 C28.38 0 56.76 0 86 0 C79.25 7.875 79.25 7.875 76.19775391 10.91577148 C75.51750153 11.59594833 74.83724915 12.27612518 74.13638306 12.97691345 C73.42364227 13.68449295 72.71090149 14.39207245 71.9765625 15.12109375 C71.23038666 15.86585464 70.48421082 16.61061554 69.71542358 17.37794495 C67.35430611 19.73350827 64.98971838 22.08555216 62.625 24.4375 C61.01409144 26.04338763 59.40341204 27.64950516 57.79296875 29.25585938 C53.86462487 33.17323513 49.93343326 37.08773487 46 41 C47.4359765 44.01423961 48.65903157 45.81403239 51.25 47.9375 C55.28134508 51.3435452 59.14740931 54.89532048 63 58.5 C67.26919557 62.48361001 71.56365026 66.41807005 75.98046875 70.23828125 C78.67740157 72.59092477 81.34250612 74.97805302 84 77.375 C84.94875 78.22835937 85.8975 79.08171875 86.875 79.9609375 C87.57625 80.63382812 88.2775 81.30671875 89 82 C89 82.33 89 82.66 89 83 C74.15 83 59.3 83 44 83 C44 102.8 44 122.6 44 143 C29.48 143 14.96 143 0 143 C0 95.81 0 48.62 0 0 Z " fill="#AB420A" transform="translate(92,55)"/>
<path d="M0 0 C14.52 0 29.04 0 44 0 C44 19.8 44 39.6 44 60 C29.48 60 14.96 60 0 60 C0 40.2 0 20.4 0 0 Z " fill="#DF530B" transform="translate(92,138)"/>
<path d="M0 0 C5.60968742 5.25847221 9.18162853 11.41854538 13 18 C13.40476563 18.69222656 13.80953125 19.38445312 14.2265625 20.09765625 C17.74462437 26.6046406 20.03561955 33.88972469 22 41 C22.39819946 42.43460571 22.39819946 42.43460571 22.80444336 43.89819336 C25.17696317 53.51039277 25.49392344 62.77914054 25.44604492 72.6394043 C25.43754378 75.29880576 25.46639277 77.95604377 25.49804688 80.61523438 C25.55865636 95.18404973 23.27281165 108.62760058 17.75 122.1875 C17.45697998 122.92379639 17.16395996 123.66009277 16.86206055 124.41870117 C13.08323479 133.62083248 8.36424283 142.32113559 2 150 C1.32582031 150.85078125 0.65164062 151.7015625 -0.04296875 152.578125 C-7.82716512 162.27646802 -16.15285064 170.42028634 -26 178 C-26.598125 178.50015625 -27.19625 179.0003125 -27.8125 179.515625 C-44.37113672 192.96951733 -67.49059518 201.03930697 -88.703125 201.23828125 C-89.53978699 201.246353 -90.37644897 201.25442474 -91.23846436 201.26274109 C-93.01019251 201.27653226 -94.78194668 201.28727648 -96.55371094 201.29516602 C-98.3298343 201.30658441 -100.10592618 201.3268713 -101.88183594 201.35668945 C-129.05382444 201.811589 -154.6725278 194.32857116 -176 177 C-175.34 176.67 -174.68 176.34 -174 176 C-171.63001168 177.27214857 -169.35687957 178.60222717 -167.0625 180 C-139.72673032 195.89889964 -105.63550342 200.02269578 -75 192 C-74.07574219 191.79503906 -73.15148437 191.59007812 -72.19921875 191.37890625 C-52.59675756 186.70335625 -33.8243969 176.26940108 -19.8203125 161.73828125 C-18 160 -18 160 -16 160 C-15.74605469 159.42507812 -15.49210938 158.85015625 -15.23046875 158.2578125 C-13.86076551 155.74451577 -12.27056572 153.96001301 -10.3125 151.875 C-6.07474522 147.18593199 -2.44386607 142.29523827 1 137 C1.57621094 136.11957031 2.15242187 135.23914063 2.74609375 134.33203125 C20.25135468 106.06629813 23.32446161 70.58832522 16.46484375 38.45703125 C13.43614695 26.22127214 7.97257069 14.13760632 0.99609375 3.64453125 C0 2 0 2 0 0 Z " fill="#030201" transform="translate(231,55)"/>
<path d="M0 0 C13.86 0 27.72 0 42 0 C35.25 7.875 35.25 7.875 32.19775391 10.91577148 C31.51750153 11.59594833 30.83724915 12.27612518 30.13638306 12.97691345 C29.42364227 13.68449295 28.71090149 14.39207245 27.9765625 15.12109375 C27.23038666 15.86585464 26.48421082 16.61061554 25.71542358 17.37794495 C23.35430611 19.73350827 20.98971838 22.08555216 18.625 24.4375 C17.01409144 26.04338763 15.40341204 27.64950516 13.79296875 29.25585938 C9.86462487 33.17323513 5.93343326 37.08773487 2 41 C3.4359765 44.01423961 4.65903157 45.81403239 7.25 47.9375 C11.28134508 51.3435452 15.14740931 54.89532048 19 58.5 C23.26919557 62.48361001 27.56365026 66.41807005 31.98046875 70.23828125 C34.67740157 72.59092477 37.34250612 74.97805302 40 77.375 C41.423125 78.65503906 41.423125 78.65503906 42.875 79.9609375 C43.57625 80.63382812 44.2775 81.30671875 45 82 C45 82.33 45 82.66 45 83 C30.15 83 15.3 83 0 83 C0 55.61 0 28.22 0 0 Z " fill="#AD4209" transform="translate(136,55)"/>
<path d="M0 0 C14.52 0 29.04 0 44 0 C44 13.53 44 27.06 44 41 C29.48 41 14.96 41 0 41 C0 27.47 0 13.94 0 0 Z " fill="#833105" transform="translate(92,97)"/>
<path d="M0 0 C14.19 0 28.38 0 43 0 C43 13.2 43 26.4 43 40 C37.96194148 35.68166413 33.0352988 31.31354113 28.1875 26.79296875 C25.86733085 24.6462143 23.63769191 22.75846127 21 21 C21 20.34 21 19.68 21 19 C20.40445313 18.73445313 19.80890625 18.46890625 19.1953125 18.1953125 C16.93670616 16.96553752 15.61255644 15.75225947 13.875 13.875 C10.20342842 10.05944522 6.1548278 6.89539098 1.94140625 3.69921875 C1.30074219 3.13847656 0.66007812 2.57773437 0 2 C0 1.34 0 0.68 0 0 Z " fill="#833105" transform="translate(93,56)"/>
<path d="M0 0 C13.86 0 27.72 0 42 0 C35.24828307 7.87700308 35.24828307 7.87700308 32.21362305 10.91577148 C31.53659836 11.59594833 30.85957367 12.27612518 30.16203308 12.97691345 C29.45242935 13.68449295 28.74282562 14.39207245 28.01171875 15.12109375 C27.26791458 15.86585464 26.52411041 16.61061554 25.75776672 17.37794495 C24.19838174 18.93800619 22.63775022 20.49682236 21.07592773 22.05444336 C18.67379699 24.4511722 16.27710749 26.85325062 13.88085938 29.25585938 C12.36230011 30.77375865 10.84343111 32.29134814 9.32421875 33.80859375 C8.60449387 34.53034286 7.88476898 35.25209198 7.14323425 35.99571228 C6.48197037 36.65382401 5.82070648 37.31193573 5.1394043 37.98999023 C4.55571579 38.57288315 3.97202728 39.15577606 3.37065125 39.7563324 C2 41 2 41 1 41 C0.67 27.47 0.34 13.94 0 0 Z " fill="#E0550D" transform="translate(136,55)"/>
</svg>
